<?xml version="1.0" encoding="UTF-8"?>
<svg id="JSL_logo" data-name="JSL logo" xmlns="http://www.w3.org/2000/svg" viewBox="0 0 720 369.71">
  <path d="M720,258.14v70.98c-.74.45-1.28,1.28-1.55,2.49-4.61,20.86-21.92,35.46-43.55,36.3l-130.94-.24c-17.84-.03-32.64-11.33-40.12-27.37-16.81,17.96-39.32,28.83-64.16,28.94l-106.5.46c-31.04-2.12-57.47-14.21-74.69-41.61-15.55,25.87-46.15,41.37-75.46,41.36l-94.11-.02c-32.59,0-65-18.63-79.05-48.74C4.3,308.75-.02,296.06,0,282.55l.1-61.72c1.84-23.69,21.54-41.96,44.47-42.01l56.44-.11c6.07-.01,11.67,1.65,17.9,3.77l.14-131.75c.03-26.44,19.25-48.59,44.47-48.64l63.04-.13c18.38-.04,33.89,10.28,41.72,26.79C287.63,7.94,312.36.27,339.75,0l91.92.02c28.31.39,52.55,8.32,72.1,29.48,7.95-16.93,23.1-27.44,41.1-27.46l71.03-.06c23.38,1.8,40.03,19.21,42.95,42.63l.12,172.89,19.36.35c22.42,2.13,37.49,19.06,41.67,40.29ZM391.82,266.43l-16.18-.06c-5.36-1.82-9.04-4.55-10.67-10.69-3.81-14.39-10.34-22.44-25.23-22.43l-52.04.04c-10.96,0-19.54,8.87-20.25,19.85-2.05,31.75,1.36,66.97,30.87,83.25l6.28,2.55c5.78,4.17,13.99,5.14,21.04,6.05.82.11,2.19-.91,3.34-.18,2.26,1.43,4.45,1.34,6.68,1.34l47.04-.02,9.07-.12,41.99-.22c25.12-.13,48.54-12.51,58.95-35.72,5.34-11.92,6.84-24.45,7.38-36.97l.34-7.95-.5-29.02c-.45-25.86-13.75-50.42-38.3-59.64l-78.65-29.52c-4.83-1.81-9.95-3.85-13.19-7.97-7.82-9.94-6.55-30.79,3.8-32.82l20.04-.26c12,3.59,6.42,17.42,14.24,27.98,4.15,5.61,9.73,8.75,16.93,8.72l54.85-.23c12.17-.05,18.97-9.47,20.53-20.2l.68-26.09c.03-1.05-.46-1.8-.94-2.12.02-3.36-.62-6.48-1.04-9.81-4.69-37.27-31.06-58.4-68.3-57.98l-5.89-.56-84.96.17-20.39,2.1c-33.86,5.66-52.1,34.83-52.08,68.3l.02,42.93c.01,24.53,13.95,46.23,36.67,55.77l91.44,38.42c7.43,6.05,8.96,15.89,6.2,24.64-.85,5.67-5.17,7.32-9.75,8.46ZM242.41,299.13c1.4-5.76,3.78-12.69,3.79-18.91l.49-221.79c0-.98-.81-1.3-1.1-1.24v-1.06c2.72-13.91-6.2-28.2-20-28.14l-64.22.25c-9.84.04-18.81,9.6-18.83,20.18l-.43,203.13c0,4.49-2.53,7.57-6.63,7.56l-7.9-.03c-4.72-.02-7.23-3.51-7.35-7.96l-.67-26.84c-.28-11.34-9.83-19.54-21.1-19.54h-54.08c-12.25,0-21.65,9.46-21.7,21.74l-.19,44.64c-.13,29.9,10.51,57.46,38.94,69,8.65,3.51,17.6,5.64,27.19,5.64h91.6c8.31,0,15.96-1.72,23.65-4.35,19.6-6.72,33.74-22.47,38.54-42.28ZM522.87,138.67v80.21s.32,104.85.32,104.85c.03,11.51,9.59,20.34,20.66,20.34l129.08-.06c10.8,0,19.82-9.19,19.9-20l.41-59.8c-1.36-10.01-7.66-20.08-18.25-20.18l-42.54-.37-.24-194.29c-.01-10.41-8.09-21.01-18.21-21.02l-72.22-.1c-10.09-.01-18.61,10-18.64,20.13l-.26,90.29ZM499.32,169.16l.36-6.98-6,2.29,5.64,4.69ZM281.27,208.12l-8.56-6.31.16,8.66c2.93-.73,4.85-1.23,8.41-2.35Z" fill="#020202"/>
  <path d="M430.58,26.2c27.34,13.18,50.94,33.07,68.3,57.98.42,3.33,1.05,6.45,1.04,9.81l.26,28.21c-1.56,10.73-8.36,20.15-20.53,20.2l-54.85.23c-7.2.03-12.77-3.11-16.93-8.72-7.82-10.55-2.23-24.38-14.24-27.98-5.55-1.66-11.69-.36-17.95-.8-.99-.07-1.69.81-2.09,1.05-10.35,2.03-11.61,22.88-3.8,32.82,3.24,4.12,8.36,6.16,13.19,7.97l78.65,29.52c24.55,9.22,37.85,33.78,38.3,59.64l.5,29.02-.34,7.95c-25.67,36.71-64.37,62.84-108.4,71.03l-8.98.99h-45.99c-.72,0-1.13.61-1.08,1.03-2.22,0-4.42.08-6.68-1.34-1.15-.73-2.53.28-3.34.18.39-.68-.08-1.64-.66-1.69l-2.3-.22-18.08-4.14-6.28-2.55c-29.52-16.28-32.92-51.5-30.87-83.25.71-10.97,9.29-19.84,20.25-19.85l52.04-.04c14.9-.01,21.42,8.04,25.23,22.43,1.62,6.14,5.31,8.86,10.67,10.69,3.94,1.34,11.48,1.22,16.18.06,4.58-1.13,8.9-2.79,9.75-8.46,2.76-8.76,1.24-18.6-6.2-24.64l-91.44-38.42c-22.71-9.54-36.65-31.24-36.67-55.77l-.02-42.93c-.02-33.47,18.22-62.64,52.08-68.3l20.39-2.1,84.96-.17,5.89.56Z" fill="#bb012d"/>
  <path d="M522.86,218.88c6.64-25.86,6.64-53.57,0-80.21l.26-90.29c.03-10.13,8.55-20.14,18.64-20.13l72.22.1c10.12.01,18.2,10.62,18.21,21.02l.24,194.29,42.54.37c10.59.09,16.89,10.16,18.25,20.18l-.41,59.8c-.07,10.82-9.1,20-19.9,20l-129.08.06c-11.07,0-20.63-8.82-20.66-20.34l-.32-104.85Z" fill="#fdfdfd"/>
  <path d="M245.57,56.13c-70.99,64.29-72.4,177.12-3.16,243-4.8,19.81-18.93,35.55-38.54,42.28-7.69,2.64-15.33,4.36-23.65,4.36h-91.6c-9.59,0-18.54-2.14-27.19-5.65-28.43-11.54-39.06-39.09-38.94-69l.19-44.64c.05-12.28,9.45-21.75,21.7-21.75h54.08c11.27,0,20.82,8.21,21.1,19.55l.67,26.84c.11,4.46,2.62,7.94,7.35,7.96l7.9.03c4.09.01,6.62-3.07,6.63-7.56l.43-203.13c.02-10.57,8.99-20.14,18.83-20.18l64.22-.25c13.79-.05,22.72,14.23,19.99,28.14Z" fill="#fdfdfd"/>
  <path d="M245.58,57.19l.62,223.03c-.01,6.22-2.39,13.16-3.79,18.91-69.24-65.88-67.83-178.71,3.16-243v1.06Z" fill="#bb012e"/>
  <path d="M391.78,346.01l-.07-1.88c44.03-8.19,82.73-34.32,108.4-71.03-.54,12.52-2.04,25.06-7.38,36.97-10.41,23.21-33.83,35.59-58.95,35.72l-41.99.22Z" fill="#fcfafa"/>
  <path d="M498.88,84.18c-17.36-24.91-40.96-44.8-68.3-57.98,37.24-.42,63.61,20.71,68.3,57.98Z" fill="#f9f6f7"/>
  <path d="M522.86,218.88v-80.21c6.64,26.65,6.64,54.35,0,80.21Z" fill="#be0a35"/>
  <path d="M246.2,280.22l-.62-223.03c.3-.06,1.11.26,1.1,1.24l-.49,221.79Z" fill="#9b4156"/>
  <path d="M382.72,345.12l-.02,1.01-47.04.02c-.06-.42.35-1.02,1.08-1.02h45.99Z" fill="#bc3253"/>
  <path d="M325.64,344.99c-7.05-.91-15.26-1.88-21.04-6.05l18.08,4.14,2.3.22c.58.06,1.04,1.02.66,1.69Z" fill="#e5d9dc"/>
  <path d="M500.18,122.19l-.26-28.21c.49.32.97,1.07.94,2.12l-.68,26.09Z" fill="#853a4b"/>
  <path d="M393.64,105.92l-20.04.26c.4-.25,1.1-1.12,2.09-1.05,6.27.44,12.4-.86,17.95.8Z" fill="#9b4156"/>
  <path d="M391.82,266.43c-4.7,1.16-12.25,1.28-16.18-.06l16.18.06Z" fill="#bc3253"/>
  <polygon points="391.7 344.13 391.78 346.01 382.7 346.13 382.72 345.12 391.7 344.13" fill="#bbb0b3"/>
</svg>